<svg width="400" height="479" viewBox="0 0 400 479" fill="none" xmlns="http://www.w3.org/2000/svg">
<g clip-path="url(#clip0_217_2507)">
<path d="M320.817 165.318H281.355V152.325C281.355 130.545 299.037 112.862 320.817 112.862L320.817 165.318Z" fill="#2F2E41"/>
<path d="M312.07 141.062L318.855 171.58L279.096 164.978L295.298 136.115L312.07 141.062Z" fill="#A0616A"/>
<path opacity="0.1" d="M312.07 141.062L318.855 171.58L279.096 164.978L295.298 136.115L312.07 141.062Z" fill="black"/>
<path d="M273.951 262.671H312.07V206.254H273.951V262.671Z" fill="#A0616A"/>
<path d="M336.848 308.795L328.461 353.776C328.461 353.776 333.798 385.033 317.788 417.053L307.115 449.836L291.104 447.549C291.104 447.549 301.015 423.153 301.015 412.479C301.015 401.806 303.303 360.637 303.303 360.637L302.159 313.66L336.848 308.795Z" fill="#2F2E41"/>
<path d="M288.818 446.786C288.818 446.786 307.115 439.925 308.64 449.836L307.877 454.41C307.877 454.41 314.739 474.994 304.828 476.519C294.917 478.044 285.768 480.331 285.006 475.757C284.243 471.182 284.255 465.472 286.155 461.466C288.055 457.459 288.818 446.786 288.818 446.786Z" fill="#2F2E41"/>
<path d="M279.136 301.817L274.681 347.356C274.681 347.356 260.862 375.896 267.335 411.106L268.471 445.563L284.485 447.819C284.485 447.819 281.75 421.629 284.718 411.376C287.687 401.124 296.939 360.943 296.939 360.943L311.102 316.138L279.136 301.817Z" fill="#2F2E41"/>
<path d="M286.894 447.723C286.894 447.723 271.227 436.044 267.006 445.14L266.466 449.745C266.466 449.745 254.15 467.609 263.246 471.83C272.342 476.051 280.494 480.793 282.498 476.611C284.503 472.429 286.079 466.941 285.369 462.564C284.658 458.187 286.894 447.723 286.894 447.723Z" fill="#2F2E41"/>
<path d="M327.699 236.75C345.63 253.482 346.96 279.957 336.466 311.464C336.466 311.464 302.922 334.335 278.525 305.365L266.327 246.661L327.699 236.75Z" fill="#2F2E41"/>
<path d="M297.585 155.174L316.645 158.224L315.12 206.254L336.467 248.947L309.021 262.67C309.021 262.67 287.674 222.264 283.862 197.105C280.051 171.947 282.338 153.649 282.338 153.649L297.585 155.174Z" fill="#FB5607"/>
<path d="M283.099 156.7L264.04 159.749L265.565 207.779L260.99 251.998L271.664 264.196C271.664 264.196 293.01 223.789 296.822 198.631C300.634 173.472 298.347 155.175 298.347 155.175L283.099 156.7Z" fill="#FB5607"/>
<path d="M305.972 157.843L310.165 156.699C310.165 156.699 325.031 154.793 327.319 160.892C329.606 166.991 328.843 202.823 328.843 202.823C328.843 202.823 332.777 246.801 317.469 247.303C302.16 247.804 305.209 211.209 305.209 211.209L305.972 157.843Z" fill="#FB5607"/>
<path d="M305.418 149.437C316.315 149.437 325.149 140.603 325.149 129.706C325.149 118.809 316.315 109.975 305.418 109.975C294.52 109.975 285.687 118.809 285.687 129.706C285.687 140.603 294.52 149.437 305.418 149.437Z" fill="#A0616A"/>
<path d="M280.813 159.368L276.62 158.224C276.62 158.224 261.754 156.318 259.466 162.417C257.179 168.517 257.942 204.349 257.942 204.349C257.942 204.349 254.008 248.327 269.316 248.828C284.625 249.329 281.576 212.735 281.576 212.735L280.813 159.368Z" fill="#FB5607"/>
<path d="M294.019 156.861C289.787 155.787 284.988 160.308 283.299 166.961C282.589 169.61 282.522 172.39 283.106 175.07L281.287 182.633L281.154 182.626L266.807 216.437C263.471 224.298 263.823 233.323 268.078 240.728C270.609 245.132 273.932 248.094 277.833 245.071C284.306 240.055 288.534 211.336 290.465 194.839L294.929 178.069C296.72 175.992 297.988 173.516 298.627 170.848C300.315 164.197 298.252 157.935 294.019 156.861Z" fill="#A0616A"/>
<path d="M267.642 145.668C268.646 142.616 270.627 139.945 271.513 136.857C272.69 132.757 275.196 141.852 275.441 137.594C275.905 129.5 288.259 108.68 295.311 104.68C302.363 100.681 306.414 101.887 313.598 105.643C313.598 105.643 317.086 105.865 321.428 108.008C325.77 110.152 329.678 113.585 331.367 118.123C332.705 121.72 332.557 125.671 333.005 129.483C334.251 140.102 340.204 150.203 338.926 160.819C338.527 164.131 337.268 167.556 334.56 169.504C331.852 171.452 327.477 171.24 325.694 168.421C325.086 167.458 324.829 166.317 324.307 165.305C323.786 164.293 322.844 163.349 321.706 163.381C319.996 163.428 319.125 165.723 319.8 167.296C320.474 168.868 322.059 169.818 323.547 170.662C320.003 172.257 315.606 171.76 312.507 169.415C309.407 167.071 307.733 162.975 308.304 159.13C309.107 153.713 317 154.834 317.93 149.437C318.606 145.507 320.983 138.933 320.336 134.999C319.688 131.065 316.579 135.828 319.855 133.555C316.251 135.292 308.543 123.408 304.77 122.077C300.998 120.746 297.799 117.863 296.084 114.249C292.082 120.05 288.563 118.475 287.13 125.374C285.697 132.273 287.021 147.948 292.922 151.8C290.561 153.411 288.678 155.715 287.57 158.35C286.943 159.843 286.536 161.477 285.494 162.717C283.504 165.085 279.83 165.229 276.901 164.233C273.27 162.999 270.166 160.287 268.454 156.855C266.742 153.423 266.444 149.311 267.642 145.668Z" fill="#2F2E41"/>
<path d="M0 477.355C0 477.859 0.404086 478.263 0.907283 478.263H399.093C399.596 478.263 400 477.859 400 477.355C400 476.852 399.596 476.448 399.093 476.448H0.907283C0.404086 476.448 0 476.852 0 477.355Z" fill="#3F3D56"/>
<path d="M259.239 0.762695H102.441C84.6595 0.762695 70.2451 15.1771 70.2451 32.9581V444.975C70.2451 462.757 84.6595 477.171 102.44 477.171H259.239C277.02 477.171 291.435 462.757 291.435 444.975V32.9581C291.435 15.1771 277.02 0.762695 259.239 0.762695Z" fill="white"/>
<path d="M259.239 477.932H102.44C84.2674 477.932 69.4824 463.148 69.4824 444.975V32.9578C69.4824 14.785 84.2674 0 102.44 0H259.239C277.412 0 292.197 14.785 292.197 32.9578V444.975C292.197 463.148 277.412 477.932 259.239 477.932ZM102.44 1.52477C85.1079 1.52477 71.0072 15.6255 71.0072 32.9578V444.975C71.0072 462.307 85.1079 476.408 102.44 476.408H259.239C276.571 476.408 290.672 462.307 290.672 444.975V32.9578C290.672 15.6255 276.571 1.52477 259.239 1.52477H102.44Z" fill="#3F3D56"/>
<path d="M57.288 72.0957C55.9114 72.0957 54.792 73.2151 54.792 74.5917V94.5596C54.792 95.9362 55.9114 97.0556 57.288 97.0556C58.6645 97.0556 59.784 95.9362 59.784 94.5596V74.5917C59.784 73.2151 58.6645 72.0957 57.288 72.0957Z" fill="#3F3D56"/>
<path d="M270.597 66.6795H207.573C204.899 66.6795 202.725 64.5046 202.725 61.8315C202.725 59.1583 204.899 56.9834 207.573 56.9834H270.597C273.27 56.9834 275.445 59.1583 275.445 61.8315C275.445 64.5046 273.27 66.6795 270.597 66.6795Z" fill="#E6E6E6"/>
<path d="M211.471 104.804H150.208C148.664 104.804 147.407 103.547 147.407 102.003C147.407 100.458 148.664 99.2021 150.208 99.2021H211.471C213.016 99.2021 214.272 100.458 214.272 102.003C214.272 103.547 213.016 104.804 211.471 104.804Z" fill="#FB5607"/>
<path d="M59.7114 118.628C87.0373 118.628 109.189 96.9424 109.189 70.1923C109.189 43.4421 87.0373 21.7568 59.7114 21.7568C32.3854 21.7568 10.2334 43.4421 10.2334 70.1923C10.2334 96.9424 32.3854 118.628 59.7114 118.628Z" fill="#FB5607"/>
<path d="M76.5046 45.7614C69.9176 57.7558 63.3305 69.7502 56.7434 81.7446C52.5453 74.3269 48.37 66.8962 44.1615 59.4843C42.7081 56.9246 38.7546 59.2269 40.2117 61.7931C45.0903 70.3851 49.9184 79.0056 54.7969 87.5976C55.6311 89.0667 57.9212 89.1008 58.7467 87.5976C65.9826 74.4218 73.2185 61.2459 80.4544 48.0702C81.8723 45.4884 77.9236 43.1776 76.5046 45.7614Z" fill="white"/>
<path d="M124.883 11.1748H89.9064C89.7758 11.1748 89.6699 11.2807 89.6699 11.4113V15.4831C89.6699 15.6137 89.7758 15.7196 89.9064 15.7196H124.883C125.013 15.7196 125.119 15.6137 125.119 15.4831V11.4113C125.119 11.2807 125.013 11.1748 124.883 11.1748Z" fill="#E6E6E6"/>
<path d="M242.694 15.7199C244.702 15.7199 246.33 14.0921 246.33 12.0841C246.33 10.0761 244.702 8.44824 242.694 8.44824C240.686 8.44824 239.059 10.0761 239.059 12.0841C239.059 14.0921 240.686 15.7199 242.694 15.7199Z" fill="#E6E6E6"/>
<path d="M252.692 15.7199C254.7 15.7199 256.328 14.0921 256.328 12.0841C256.328 10.0761 254.7 8.44824 252.692 8.44824C250.684 8.44824 249.057 10.0761 249.057 12.0841C249.057 14.0921 250.684 15.7199 252.692 15.7199Z" fill="#E6E6E6"/>
<path d="M262.691 15.7199C264.699 15.7199 266.327 14.0921 266.327 12.0841C266.327 10.0761 264.699 8.44824 262.691 8.44824C260.683 8.44824 259.056 10.0761 259.056 12.0841C259.056 14.0921 260.683 15.7199 262.691 15.7199Z" fill="#E6E6E6"/>
<path d="M102.059 119.798C102.059 120.301 102.463 120.705 102.966 120.705H258.713C259.216 120.705 259.621 120.301 259.621 119.798C259.621 119.295 259.216 118.891 258.713 118.891H102.966C102.463 118.891 102.059 119.295 102.059 119.798Z" fill="#3F3D56"/>
<path d="M243.778 191.104H150.311C148.766 191.104 147.51 189.847 147.51 188.303C147.51 186.758 148.766 185.502 150.311 185.502H243.778C245.322 185.502 246.578 186.758 246.578 188.303C246.578 189.847 245.322 191.104 243.778 191.104Z" fill="#FB5607"/>
<path d="M243.778 231.51H150.311C148.766 231.51 147.51 230.253 147.51 228.709C147.51 227.164 148.766 225.908 150.311 225.908H243.778C245.322 225.908 246.578 227.164 246.578 228.709C246.578 230.253 245.322 231.51 243.778 231.51Z" fill="#FB5607"/>
<path d="M243.778 271.917H150.311C148.766 271.917 147.51 270.661 147.51 269.116C147.51 267.572 148.766 266.315 150.311 266.315H243.778C245.322 266.315 246.578 267.572 246.578 269.116C246.578 270.661 245.322 271.917 243.778 271.917Z" fill="#FB5607"/>
<path d="M121.962 194.819C125.752 194.819 128.823 191.747 128.823 187.957C128.823 184.168 125.752 181.096 121.962 181.096C118.173 181.096 115.101 184.168 115.101 187.957C115.101 191.747 118.173 194.819 121.962 194.819Z" fill="#FB5607"/>
<path d="M121.199 199.393V197.868C126.874 197.868 131.491 193.251 131.491 187.576C131.491 181.901 126.874 177.284 121.199 177.284V175.759C127.715 175.759 133.016 181.06 133.016 187.576C133.016 194.092 127.715 199.393 121.199 199.393Z" fill="#3F3D56"/>
<path d="M121.962 235.225C125.752 235.225 128.823 232.153 128.823 228.363C128.823 224.574 125.752 221.502 121.962 221.502C118.173 221.502 115.101 224.574 115.101 228.363C115.101 232.153 118.173 235.225 121.962 235.225Z" fill="#FB5607"/>
<path d="M121.199 239.799V238.274C126.874 238.274 131.491 233.657 131.491 227.982C131.491 222.307 126.874 217.69 121.199 217.69V216.165C127.715 216.165 133.016 221.466 133.016 227.982C133.016 234.498 127.715 239.799 121.199 239.799Z" fill="#3F3D56"/>
<path d="M121.962 275.631C125.752 275.631 128.823 272.559 128.823 268.77C128.823 264.98 125.752 261.908 121.962 261.908C118.173 261.908 115.101 264.98 115.101 268.77C115.101 272.559 118.173 275.631 121.962 275.631Z" fill="#FB5607"/>
<path d="M121.199 280.205V278.68C126.874 278.68 131.491 274.064 131.491 268.388C131.491 262.713 126.874 258.096 121.199 258.096V256.571C127.715 256.571 133.016 261.872 133.016 268.388C133.016 274.904 127.715 280.205 121.199 280.205Z" fill="#3F3D56"/>
<path d="M292.765 155.337C296.998 154.263 301.797 158.783 303.485 165.437C304.196 168.086 304.262 170.866 303.678 173.545L305.497 181.108L305.631 181.101L319.978 214.912C323.313 222.774 322.961 231.799 318.706 239.203C316.175 243.608 312.853 246.569 308.952 243.546C302.478 238.531 298.25 209.812 296.32 193.314L291.856 176.545C290.064 174.468 288.796 171.992 288.158 169.324C286.469 162.673 288.532 156.41 292.765 155.337Z" fill="#A0616A"/>
<path d="M309.062 173.864L293.011 185.274L301.036 235.815L311.102 248.833L322.827 244.778L326.255 220.886L322.221 197.78L309.062 173.864Z" fill="#FB5607"/>
</g>
<defs>
<clipPath id="clip0_217_2507">
<rect width="400" height="478.459" fill="white"/>
</clipPath>
</defs>
</svg>
