<svg width="628" height="494" viewBox="0 0 628 494" fill="none" xmlns="http://www.w3.org/2000/svg">
<g clip-path="url(#clip0_217_2609)">
<path d="M164.52 222.866C163.139 222.866 162.017 223.989 162.017 225.37V245.398C162.017 246.779 163.139 247.902 164.52 247.902C165.901 247.902 167.024 246.779 167.024 245.398V225.37C167.024 223.989 165.901 222.866 164.52 222.866Z" fill="#3F3D56"/>
<path d="M449.291 0H224.088C198.549 0 177.847 20.7027 177.847 46.2407V444.191C177.847 469.729 198.549 490.431 224.087 490.431H449.291C474.829 490.431 495.532 469.729 495.532 444.191V46.2407C495.532 20.7027 474.829 0 449.291 0Z" fill="white"/>
<path d="M449.292 493.816H224.089C197.988 493.816 176.753 472.582 176.753 446.481V48.5346C176.753 22.434 197.988 1.19922 224.089 1.19922H449.292C475.393 1.19922 496.628 22.434 496.628 48.5346V446.481C496.628 472.582 475.393 493.816 449.292 493.816ZM224.089 3.38916C199.195 3.38916 178.943 23.6412 178.943 48.5346V446.481C178.943 471.375 199.195 491.626 224.089 491.626H449.292C474.186 491.626 494.438 471.375 494.438 446.481V48.5346C494.438 23.6412 474.186 3.38916 449.292 3.38916H224.089Z" fill="#3F3D56"/>
<path d="M465.604 96.9671H375.084C371.245 96.9671 368.121 93.8434 368.121 90.004C368.121 86.1647 371.245 83.041 375.084 83.041H465.604C469.443 83.041 472.567 86.1647 472.567 90.004C472.567 93.8434 469.443 96.9671 465.604 96.9671Z" fill="#E6E6E6"/>
<path d="M380.685 151.724H292.696C290.478 151.724 288.673 149.919 288.673 147.701C288.673 145.483 290.478 143.679 292.696 143.679H380.685C382.903 143.679 384.707 145.483 384.707 147.701C384.707 149.919 382.903 151.724 380.685 151.724Z" fill="#FB5607"/>
<path d="M256.422 17.249H205.982C205.851 17.249 205.745 17.3552 205.745 17.4862V23.5393C205.745 23.6703 205.851 23.7765 205.982 23.7765H256.422C256.553 23.7765 256.66 23.6703 256.66 23.5393V17.4862C256.66 17.3552 256.553 17.249 256.422 17.249Z" fill="#E6E6E6"/>
<path d="M425.528 23.7769C428.412 23.7769 430.75 21.439 430.75 18.555C430.75 15.671 428.412 13.333 425.528 13.333C422.644 13.333 420.306 15.671 420.306 18.555C420.306 21.439 422.644 23.7769 425.528 23.7769Z" fill="#E6E6E6"/>
<path d="M439.888 23.7769C442.772 23.7769 445.11 21.439 445.11 18.555C445.11 15.671 442.772 13.333 439.888 13.333C437.004 13.333 434.666 15.671 434.666 18.555C434.666 21.439 437.004 23.7769 439.888 23.7769Z" fill="#E6E6E6"/>
<path d="M454.249 23.7769C457.133 23.7769 459.471 21.439 459.471 18.555C459.471 15.671 457.133 13.333 454.249 13.333C451.365 13.333 449.027 15.671 449.027 18.555C449.027 21.439 451.365 23.7769 454.249 23.7769Z" fill="#E6E6E6"/>
<path d="M223.539 173.258C223.539 173.981 224.119 174.561 224.842 174.561H448.535C449.258 174.561 449.838 173.981 449.838 173.258C449.838 172.535 449.258 171.955 448.535 171.955H224.842C224.119 171.955 223.539 172.535 223.539 173.258Z" fill="#3F3D56"/>
<path d="M400.951 357.552C400.951 358.275 401.532 358.855 402.254 358.855H625.947C626.67 358.855 627.25 358.275 627.25 357.552C627.25 356.829 626.67 356.249 625.947 356.249H402.254C401.532 356.249 400.951 356.829 400.951 357.552Z" fill="#3F3D56"/>
<path d="M427.086 275.675H292.844C290.625 275.675 288.82 273.87 288.82 271.651C288.82 269.433 290.625 267.629 292.844 267.629H427.086C429.305 267.629 431.109 269.433 431.109 271.651C431.109 273.87 429.305 275.675 427.086 275.675Z" fill="#FB5607"/>
<path d="M252.127 281.005C257.57 281.005 261.982 276.593 261.982 271.151C261.982 265.708 257.57 261.296 252.127 261.296C246.685 261.296 242.272 265.708 242.272 271.151C242.272 276.593 246.685 281.005 252.127 281.005Z" fill="#FB5607"/>
<path d="M251.032 287.578V285.388C259.183 285.388 265.814 278.757 265.814 270.606C265.814 262.455 259.183 255.824 251.032 255.824V253.634C260.391 253.634 268.004 261.247 268.004 270.606C268.004 279.965 260.391 287.578 251.032 287.578Z" fill="#3F3D56"/>
<path d="M133.655 231.408C137.675 227.318 143.044 226.076 145.647 228.634C148.25 231.193 147.101 236.583 143.079 240.674C141.495 242.331 139.537 243.584 137.369 244.329L120.118 261.447L112.258 253.18L130.099 237.182C130.806 235.001 132.025 233.022 133.655 231.408Z" fill="#FFB6B6"/>
<path d="M78.4835 217.28L96.571 257.407L125.454 241.772L135.791 247.258C135.791 247.258 112.18 286.732 96.0129 282.239C79.8463 277.745 51.1386 237 56.311 224.425C61.4834 211.85 78.4835 217.28 78.4835 217.28Z" fill="#E6E6E6"/>
<path d="M0 492.478C0 492.983 0.405312 493.388 0.910035 493.388H558.596C559.101 493.388 559.506 492.983 559.506 492.478C559.506 491.974 559.101 491.568 558.596 491.568H0.910035C0.405312 491.568 0 491.974 0 492.478Z" fill="#3F3D56"/>
<path d="M166.952 296.305C194.361 296.305 216.58 274.554 216.58 247.722C216.58 220.891 194.361 199.14 166.952 199.14C139.543 199.14 117.323 220.891 117.323 247.722C117.323 274.554 139.543 296.305 166.952 296.305Z" fill="#FB5607"/>
<path d="M70.5495 484.7L83.7383 484.699L90.0123 433.827L70.5469 433.829L70.5495 484.7Z" fill="#FFB6B6"/>
<path d="M115.736 484.401C116.147 485.092 116.364 487.324 116.364 488.129C116.364 490.601 114.36 492.605 111.887 492.605H71.0434C69.3569 492.605 67.9896 491.238 67.9896 489.551V487.851C67.9896 487.851 65.9691 482.74 70.129 476.441C70.129 476.441 75.2991 481.373 83.0247 473.648L85.3029 469.521L101.794 481.581L110.935 482.706C112.934 482.952 114.708 482.668 115.736 484.401Z" fill="#2F2E41"/>
<path d="M80.5326 219.854L80.7994 202.066L69.8297 195.228L57.9014 209.818L80.5326 219.854Z" fill="#FFB6B6"/>
<path opacity="0.1" d="M80.532 219.854L81.2421 202.509L69.8291 195.228L73.7067 216.693L80.532 219.854Z" fill="black"/>
<path d="M107.173 337.48L88.9992 461.148H66.198L69.2299 390.555L70.8256 353.437L66.198 335.769C66.198 335.769 64.0881 331.842 62.3106 327.081C60.3071 321.709 58.7247 315.268 61.0739 312.214C61.9383 311.088 64.1856 310.255 67.2396 309.634C69.1058 309.253 71.2777 308.956 73.6226 308.726C87.1065 307.391 106.286 308.225 106.286 308.225L106.774 324.315L107.044 333.3L107.173 337.48Z" fill="#2F2E41"/>
<path d="M47.3193 478.652L60.368 480.569L73.9749 431.151L54.7163 428.321L47.3193 478.652Z" fill="#FFB6B6"/>
<path d="M92.0689 484.93C92.3746 485.674 92.2643 487.914 92.1473 488.71C91.7877 491.156 89.5134 492.847 87.0675 492.487L46.6578 486.546C44.9893 486.301 43.8354 484.749 44.0807 483.081L44.3281 481.398C44.3281 481.398 43.0725 476.048 48.1044 470.421C48.1044 470.421 52.5021 476.053 61.2692 469.533L64.1235 465.781L78.6849 480.112L87.5648 482.555C89.5075 483.09 91.3032 483.066 92.0689 484.93Z" fill="#2F2E41"/>
<path d="M107.459 316.857L104.966 338.324L91.3724 383.56L68.9947 458.035L46.4385 454.72L66.6824 348.828L64.678 330.67C64.678 330.67 64.0252 328.866 63.2769 326.223C61.7916 320.996 59.9287 312.483 61.9782 308.14C62.2549 307.55 62.6023 307.038 63.0321 306.623C63.8382 305.841 65.4765 305.367 67.6715 305.115C76.8463 304.078 95.741 307.044 104.149 308.5L107.459 316.857Z" fill="#2F2E41"/>
<path d="M60.4089 206.055L82.5719 216.693C82.5719 216.693 106.065 286.284 106.065 289.831C106.065 293.377 112.714 295.593 108.724 299.582C104.735 303.572 116.149 306.95 109.999 310.137C103.848 313.323 65.4803 330.753 61.2139 329.182C49.4471 324.846 61.7125 308.917 61.7125 308.917C61.7125 308.917 52.8735 301.799 54.2033 298.252C55.5331 294.706 46.2246 226.888 46.2246 226.888L60.4089 206.055Z" fill="#E6E6E6"/>
<path d="M127.942 267.377C133.443 265.752 138.74 267.273 139.773 270.773C140.807 274.274 137.186 278.428 131.683 280.053C129.494 280.732 127.174 280.877 124.917 280.476L101.525 287.067L98.666 276.024L122.03 270.699C123.707 269.135 125.735 267.996 127.942 267.377Z" fill="#FFB6B6"/>
<path d="M86.5665 228.239L82.9002 272.101L115.741 272.454L122.115 282.268C122.115 282.268 82.3097 305.316 70.3573 293.54C58.4049 281.763 53.0868 232.205 63.7135 223.722C74.3401 215.239 86.5665 228.239 86.5665 228.239Z" fill="#E6E6E6"/>
<path d="M80.0708 207.227C90.5563 207.227 99.0566 198.727 99.0566 188.241C99.0566 177.756 90.5563 169.256 80.0708 169.256C69.5852 169.256 61.085 177.756 61.085 188.241C61.085 198.727 69.5852 207.227 80.0708 207.227Z" fill="#FFB6B6"/>
<path d="M69.8303 188.315C69.8303 188.315 72.8202 183.382 74.4646 180.84C76.1091 178.299 76.1091 174.576 76.1091 174.576C76.1091 174.576 91.3575 174.263 96.4403 178.598C101.523 182.933 105.111 166.938 100.178 161.406C100.178 161.406 98.0847 163.798 98.5332 164.695L98.9817 165.592C98.9817 165.592 96.4403 155.427 89.115 153.483C89.115 153.483 85.0401 155.588 86.1806 156.778C87.3211 157.968 77.4545 149.596 74.4646 154.53C74.4646 154.53 67.1394 154.38 68.0364 157.071L67.5879 158.716C67.5879 158.716 61.3091 156.772 60.8607 161.406C60.8607 161.406 63.1031 161.406 64.299 162.602C65.495 163.798 59.9637 167.237 59.9637 167.237C59.9637 167.237 53.5354 184.877 62.2061 192.052C62.2061 192.052 62.2809 183.457 65.7192 185.55C69.1576 187.642 69.8303 188.315 69.8303 188.315Z" fill="#2F2E41"/>
<path d="M87.8975 199.527L87.2158 201.321L92.3285 201.471L92.6694 199.826L87.8975 199.527Z" fill="#2F2E41"/>
<path d="M93.0106 193.1C93.0106 193.1 85.3416 191.007 80.7402 197.286L79.7177 198.482C79.7177 198.482 70.0036 187.569 70.8557 183.532L68.8107 183.682L66.7656 194.146C66.7656 194.146 73.2416 205.358 82.274 205.807C82.274 205.807 90.9655 207.9 92.8402 204.312C94.7148 200.724 97.9423 195.433 97.9423 195.433L93.0106 193.1ZM91.6157 203.116H86.5345C85.3416 203.116 82.274 198.78 82.274 198.78C83.9782 196.09 89.0909 195.94 89.0909 195.94H94.643L95.0556 197.585L91.6157 203.116Z" fill="#2F2E41"/>
<path d="M463.102 486.145L454.766 484.343L457.747 451.332L470.05 453.991L463.102 486.145Z" fill="#A0616A"/>
<path d="M434.582 479.784C434.228 480.165 433.786 481.547 433.676 482.055C433.339 483.618 434.332 485.158 435.894 485.496L461.71 491.074C462.776 491.304 463.827 490.626 464.058 489.56L464.29 488.486C464.29 488.486 466.265 485.531 464.496 480.981C464.496 480.981 460.554 483.393 456.726 477.455L455.85 474.535L443.779 479.906L437.848 479.369C436.551 479.252 435.469 478.83 434.582 479.784Z" fill="#2F2E41"/>
<path d="M448.192 483.624L441.237 478.688L456.967 449.513L467.232 456.798L448.192 483.624Z" fill="#A0616A"/>
<path d="M424.474 466.555C423.999 466.766 423.049 467.862 422.748 468.286C421.823 469.59 422.13 471.397 423.433 472.322L444.972 487.608C445.862 488.239 447.095 488.03 447.726 487.141L448.362 486.244C448.362 486.244 451.34 484.305 451.504 479.426C451.504 479.426 446.932 480.092 445.749 473.127L446.092 470.098L432.882 470.286L427.64 467.459C426.494 466.84 425.665 466.027 424.474 466.555Z" fill="#2F2E41"/>
<path d="M548.381 320.415C548.381 320.415 561.35 338.047 535.412 357.871L482.455 340.949L501.368 301.503L518.12 292.316L548.381 320.415Z" fill="#2F2E41"/>
<path d="M482.454 340.949L461.92 380.936L448.951 464.153L465.162 465.234L481.373 386.34L510.012 343.651L490.019 334.465" fill="#2F2E41"/>
<path d="M535.411 345.311V357.872L498.667 398.229C498.667 398.229 498.667 428.49 484.617 442.539L468.406 467.396L454.356 459.831L474.89 387.422L511.635 339.869L535.411 345.311Z" fill="#2F2E41"/>
<path d="M509.302 220.786L514.874 247.177L536.118 241.985C536.118 241.985 525.617 220.144 527.706 211.491L509.302 220.786Z" fill="#A0616A"/>
<path opacity="0.1" d="M509.302 220.786L514.874 247.177L536.118 241.985C536.118 241.985 525.617 220.144 527.706 211.491L509.302 220.786Z" fill="black"/>
<path d="M529.467 224.771L513.256 232.337C513.256 232.337 504.917 237.434 504.764 240.829C504.61 244.225 505.691 260.436 505.691 260.436C505.691 260.436 499.207 266.92 503.53 279.889L501.368 301.503L550.001 327.441L545.678 282.05L547.84 239.902L529.467 224.771Z" fill="#E6E6E6"/>
<path d="M544.016 347.761C542.118 352.116 538.332 354.667 535.561 353.458C532.79 352.25 532.083 347.741 533.982 343.385C534.717 341.634 535.86 340.085 537.316 338.867L545.592 320.517L554.12 324.583L545.057 342.242C545.156 344.138 544.799 346.031 544.016 347.761Z" fill="#A0616A"/>
<path d="M535.408 242.605C535.408 242.605 547.296 235.039 551.619 243.685C555.942 252.331 565.669 296.641 565.669 296.641L551.619 338.789L538.65 333.386L549.998 288.025L535.408 242.605Z" fill="#E6E6E6"/>
<path d="M474.478 340.954C471.109 344.303 466.65 345.28 464.519 343.136C462.388 340.991 463.392 336.539 466.762 333.189C468.09 331.832 469.724 330.813 471.527 330.217L485.98 316.206L492.411 323.129L477.479 336.206C476.872 338.006 475.843 339.634 474.478 340.954Z" fill="#A0616A"/>
<path d="M505.216 240.022C505.216 240.022 525.942 239.174 526.776 248.805C527.61 258.435 513.441 301.406 513.441 301.406L484.852 335.414L474.786 325.613L502.047 287.623L505.216 240.022Z" fill="#E6E6E6"/>
<path d="M565.066 354.152L432.537 332.776C430.347 332.423 428.853 330.353 429.206 328.163C429.559 325.973 431.628 324.48 433.818 324.833L566.347 346.209C568.537 346.562 570.031 348.63 569.678 350.82C569.325 353.01 567.256 354.505 565.066 354.152Z" fill="#FB5607"/>
<path d="M393.06 331.685C398.503 331.685 402.915 327.273 402.915 321.83C402.915 316.388 398.503 311.976 393.06 311.976C387.617 311.976 383.205 316.388 383.205 321.83C383.205 327.273 387.617 331.685 393.06 331.685Z" fill="#FB5607"/>
<path d="M389.363 337.87L389.712 335.708C397.759 337.006 405.361 331.516 406.659 323.469C407.957 315.422 402.467 307.819 394.42 306.521L394.768 304.359C404.008 305.85 410.312 314.578 408.821 323.817C407.331 333.056 398.603 339.36 389.363 337.87Z" fill="#3F3D56"/>
<path d="M511.425 226.396C520.44 226.396 527.747 219.088 527.747 210.074C527.747 201.06 520.44 193.752 511.425 193.752C502.411 193.752 495.104 201.06 495.104 210.074C495.104 219.088 502.411 226.396 511.425 226.396Z" fill="#A0616A"/>
<path d="M521.072 210.074C521.072 210.074 510.883 200.825 504.354 204.09C497.825 207.354 494.561 209.53 494.561 209.53C494.561 209.53 489.12 201.369 497.281 194.297C497.281 194.297 480.67 187.04 492.784 175.706C504.898 164.373 515.779 168.726 515.779 168.726C515.779 168.726 530.469 175.254 520.132 188.312C520.132 188.312 535.191 197.863 527.39 213.489C527.39 213.489 526.661 203.546 524.484 206.266C522.308 208.986 521.072 210.074 521.072 210.074Z" fill="#2F2E41"/>
<path d="M184.002 266.014C177.763 250.673 171.523 235.332 165.283 219.991C164.422 217.873 161.722 217.797 160.881 219.991C154.716 236.075 150.687 252.858 148.75 269.969C148.421 272.884 152.989 272.86 153.316 269.969C154.074 263.273 155.199 256.627 156.643 250.052C161.785 250.322 166.969 249.745 171.93 248.371C174.487 254.657 177.043 260.942 179.6 267.227C180.692 269.913 185.11 268.739 184.002 266.014ZM157.679 245.538C159.216 239.244 161.06 233.024 163.199 226.905L170.196 244.108C166.098 245.184 161.907 245.662 157.679 245.538Z" fill="white"/>
<path d="M192.802 269.851C195.336 269.851 197.39 267.797 197.39 265.263C197.39 262.729 195.336 260.675 192.802 260.675C190.268 260.675 188.214 262.729 188.214 265.263C188.214 267.797 190.268 269.851 192.802 269.851Z" fill="white"/>
<path d="M144.627 229.321C147.161 229.321 149.216 227.267 149.216 224.733C149.216 222.199 147.161 220.145 144.627 220.145C142.093 220.145 140.039 222.199 140.039 224.733C140.039 227.267 142.093 229.321 144.627 229.321Z" fill="white"/>
</g>
<defs>
<clipPath id="clip0_217_2609">
<rect width="627.25" height="493.819" fill="white"/>
</clipPath>
</defs>
</svg>
